<svg xmlns="http://www.w3.org/2000/svg" viewBox="0 0 256 256"><defs><style>.cls-1{fill:#ee2433;}.cls-2{fill:#d1212f;isolation:isolate;}.cls-3{fill:#fff;}</style></defs><title>icon_1</title><g id="Layer_2" data-name="Layer 2"><g id="icon"><rect class="cls-1" width="256" height="256"/><path class="cls-2" d="M256,256V115.91L177.2,60.77a44.09,44.09,0,0,1,6.71,8.37,45.13,45.13,0,0,1,6.14,16.29,65.63,65.63,0,0,1,.4,17.86,48.59,48.59,0,0,1-4.73,16.29,39.25,39.25,0,0,1-9.83,12.59,32.15,32.15,0,0,1-14.8,6.93,78.74,78.74,0,0,1-10,.79,57.81,57.81,0,0,1-10.78-.63l-19.21,31.32-11.17,2-.16.16-16.52,26.6A11,11,0,0,1,90,202.77a10.05,10.05,0,0,1-4.17,1.81l-12.28,2.36a4.41,4.41,0,0,1-1.7-.06L142.11,256Z"/><path class="cls-3" d="M169.59,97.7q-4.72,7.1-9.84,4.18a120.76,120.76,0,0,1-11.88-7.95,119.68,119.68,0,0,1-11.17-9q-4.41-4.09.31-11.18a19.07,19.07,0,0,1,12.83-8.58,18.42,18.42,0,0,1,14.87,3.54,21.14,21.14,0,0,1,4.88,29Zm20.46-12.27a45.13,45.13,0,0,0-6.14-16.29,43.12,43.12,0,0,0-11.25-12.2,41.49,41.49,0,0,0-14.79-6.85,40.05,40.05,0,0,0-16.77-.39,55.12,55.12,0,0,0-16.29,5.67,45.34,45.34,0,0,0-13,10.23,40.32,40.32,0,0,0-8,13.93,33.8,33.8,0,0,0-1,16.76,72.47,72.47,0,0,0,2.28,9.36,63.86,63.86,0,0,0,3.85,9.84l-41.7,62.17a11.33,11.33,0,0,0-1.82,4.41,13.6,13.6,0,0,0-.23,4.72l2.67,15.9A5.66,5.66,0,0,0,70,206a4.44,4.44,0,0,0,3.54.95l12.28-2.36A10.05,10.05,0,0,0,90,202.77a11,11,0,0,0,3.23-3.39l16.52-26.6.16-.16,11.17-2,19.21-31.32a57.81,57.81,0,0,0,10.78.63,78.74,78.74,0,0,0,10-.79,32.15,32.15,0,0,0,14.8-6.93,39.25,39.25,0,0,0,9.83-12.59,48.59,48.59,0,0,0,4.73-16.29A65.63,65.63,0,0,0,190.05,85.43Z"/></g></g></svg>